<svg width="28" height="28" viewBox="0 0 28 28" fill="none" xmlns="http://www.w3.org/2000/svg">
<circle cx="14" cy="14" r="14" fill="#2D2D2D"/>
<path d="M9.33944 18.8615C7.87259 19.5157 6.55949 20.4715 5.48535 21.6667C6.55294 22.8728 7.86389 23.8383 9.33162 24.4995C10.7994 25.1607 12.3905 25.5027 13.9999 25.5027C15.6093 25.5027 17.2004 25.1607 18.6682 24.4995C20.1359 23.8383 21.4469 22.8728 22.5144 21.6667C21.4403 20.4715 20.1272 19.5157 18.6604 18.8615C17.1935 18.2072 15.6057 17.8691 13.9999 17.8691C12.3941 17.8691 10.8063 18.2072 9.33944 18.8615Z" fill="url(#paint0_linear_2537_64946)"/>
<path d="M16.4748 7.76153C15.7422 7.27138 14.881 7.00977 14 7.00977C12.8185 7.00977 11.6855 7.47973 10.8501 8.31627C10.0147 9.15282 9.54541 10.2874 9.54541 11.4705C9.54541 12.3527 9.80666 13.2151 10.2961 13.9487C10.7856 14.6822 11.4813 15.254 12.2953 15.5916C13.1092 15.9292 14.0049 16.0176 14.869 15.8454C15.7331 15.6733 16.5268 15.2485 17.1498 14.6247C17.7728 14.0008 18.197 13.206 18.3689 12.3407C18.5408 11.4754 18.4526 10.5785 18.1154 9.76343C17.7783 8.94834 17.2073 8.25168 16.4748 7.76153Z" fill="white"/>
<defs>
<linearGradient id="paint0_linear_2537_64946" x1="22.5144" y1="17.8691" x2="4.98602" y2="19.2744" gradientUnits="userSpaceOnUse">
<stop stop-color="#D81D3C"/>
<stop offset="1" stop-color="#A81D34"/>
</linearGradient>
</defs>
</svg>
